<svg xmlns="http://www.w3.org/2000/svg" width="488.82" height="581.402" viewBox="0 0 488.82 581.402">
  <path id="Path_23009" data-name="Path 23009" d="M151.589,318.2c50.97,35.4,120.06-10.476,148.66,27.186A130.137,130.137,0,0,1,316.954,375.4c3.114,8.212,7.928,28.884,11.325,35.111l5.946-7.077c2.266-3.117,4.248-6.233,6.228-9.062C373.867,346.8,400.2,306.307,389.725,239.2,376.983,156.8,335.641,87.143,243.618,89.406c-17.274.569-43.889,0-46.442,13.31-1.414,9.062-.563,48.985.287,59.745,2.266,28.318,18.969,62.3,40.207,77.587,11.607,7.928,24.067,15.293,36.245,23.5,5.662,3.964,12.461,8.212,18.119,11.61l33.983,26.049c5.661,5.383,8.775,11.044,13.3,15.858l-1.414,1.982c-.565.281-8.78-8.778-9.909-9.626-12.744-11.612-21.522-16.99-37.1-26.052-18.69-10.76-35.393-19.256-52.949-30.3-30.3-19.537-44.458-36.527-53.52-71.357-4.811-19.256-1.413-31.711-6.509-36.525-10.762-11.044-38.227,28.316-43.038,36.525-23.563,42.444-29.389,104.518,16.7,136.481Zm233.037,350.55c-20.666,4.53-14.157,2.832-17.836-20.391-12.742-82.112-12.461-46.718-29.166-105.615-16.708-58.613-3.964-107.882,32.845-133.083,39.078-26.618,80.419-32.845,127.988-49.553,71.92-25.483,94.291-65.974,107.319-71.352-3.4,16.14-17.559,33.977-25.771,43.321C482.6,442.222,516.581,503.1,475.52,563.412c-13.592,20.1-45.021,49.553-79.569,53.8-7.359-64.559-19.25-92.308,18.69-138.181C432.2,457.8,495.624,416.736,504.12,397.2c-8.5,2.266-8.212,6.8-14.727,11.894-32.844,25.768-78.715,54.08-98.537,82.964-39.075,56.915-3.679,142.143-6.23,176.691Zm-6.511-289.105c1.416-4.53,20.385-36.812,27.468-54.646,15.855-38.8-.287-88.631-10.475-134.786-13.028-57.479-22.939-94.29,56.628-51.814,17.271,9.062,31.431,22.651,39.925,39.922,12.175,24.633,10.76,38.228-1.132,60.6l-31.429,48.7c16.14-5.38,32.279-35.962,43.6-52.951,11.892,4.248,31.713,32.845,38.51,48.7,22.934,54.649-74.471,63.711-100.239,70.507C405.583,363.222,392.841,375.113,378.114,379.643Z" transform="translate(-116.955 -89.353)" fill="#8fc54d" fill-rule="evenodd"/>
</svg>
