<svg width="18" height="21" viewBox="0 0 18 21" fill="none" xmlns="http://www.w3.org/2000/svg">
<g clip-path="url(#clip0_6366_4388)">
<path fill-rule="evenodd" clip-rule="evenodd" d="M16.404 8.26588C14.563 9.54451 12.0675 7.88749 11.0345 9.24783C10.7863 9.58094 10.5835 9.94548 10.4311 10.3319C10.3186 10.6285 10.1448 11.3752 10.0221 11.6001L9.80729 11.3445C9.72544 11.2319 9.65386 11.1194 9.58234 11.0172C8.37544 9.2989 7.4243 7.83631 7.80265 5.41243C8.26289 2.43618 9.75615 -0.0798012 13.08 0.00193737C13.7039 0.0224894 14.6652 0.00193754 14.7574 0.482689C14.8085 0.810005 14.7778 2.25201 14.7471 2.64065C14.6652 3.66349 14.0619 4.8909 13.2948 5.44306C12.8756 5.72942 12.4255 5.99544 11.9857 6.29187C11.7812 6.43505 11.5356 6.58849 11.3312 6.71122L10.1038 7.6521C9.89929 7.84653 9.78681 8.05101 9.62337 8.22489L9.67444 8.29647C9.69485 8.30662 9.99157 7.97942 10.0324 7.94879C10.4927 7.52937 10.8097 7.33511 11.3724 7.0078C12.0475 6.61915 12.6508 6.31228 13.2849 5.91338C14.3793 5.20771 14.8907 4.59404 15.218 3.33599C15.3918 2.64047 15.269 2.1906 15.4531 2.01672C15.8418 1.61782 16.8339 3.03949 17.0076 3.33599C17.8587 4.86905 18.0691 7.11114 16.4044 8.26563L16.404 8.26588ZM7.98683 20.9276C8.73328 21.0912 8.49817 21.0299 8.63106 20.1911C9.09129 17.2252 9.08114 18.5037 9.68452 16.3763C10.288 14.2592 9.8277 12.4797 8.49817 11.5694C7.08669 10.608 5.59347 10.3831 3.8753 9.77958C1.27758 8.85915 0.469547 7.39663 -0.00101895 7.20238C0.121788 7.78535 0.633205 8.42961 0.929819 8.76711C4.44805 12.7455 3.22067 14.9444 4.70377 17.1228C5.19471 17.8488 6.32991 18.9127 7.57777 19.0661C7.84358 16.7342 8.27308 15.7319 6.9027 14.075C6.26847 13.3082 3.97763 11.825 3.67075 11.1193C3.97777 11.2012 3.96737 11.3649 4.20269 11.5489C5.389 12.4797 7.04584 13.5023 7.7618 14.5456C9.17318 16.6013 7.89469 19.6797 7.98683 20.9276ZM8.222 10.4852C8.17086 10.3216 7.4857 9.15561 7.22987 8.51146C6.65719 7.11002 7.24024 5.31014 7.60822 3.64304C8.07879 1.56693 8.43677 0.237329 5.56284 1.77154C4.93902 2.09886 4.42757 2.58969 4.12077 3.21351C3.68101 4.10324 3.73212 4.59429 4.16166 5.40236L5.29686 7.16138C4.71389 6.96706 4.13095 5.86245 3.72204 5.24881C3.29251 5.40225 2.57658 6.43516 2.33108 7.00784C1.50271 8.98173 5.02094 9.30905 5.95167 9.55452C7.22987 9.89206 7.6901 10.3216 8.22204 10.4852L8.222 10.4852Z" fill="#17517E"/>
</g>
<defs>
<clipPath id="clip0_6366_4388">
<rect width="17.656" height="21" fill="white" transform="matrix(-1 0 0 1 17.6553 0)"/>
</clipPath>
</defs>
</svg>
